# xmcd
#
# Track frame offsets:
#	150
#	18183
#	49746
#	81417
#
# Disc length: 1488 seconds
#
# Revision: 1
# Processed by: cddbd v1.5.2PL0 Copyright (c) Steve Scherf et al.
# Submitted via: audiograbber 1.83.01
#
DISCID=2705ce04
DTITLE=DeCall Featuring Jay R - Surrender [CDM)
DYEAR=2001
DGENRE=Trance
TTITLE0=Surrender (Radio Edit)
TTITLE1=Surrender (Extended Version)
TTITLE2=Surrender (Jason B Sticky Fingers Mix)
TTITLE3=Surrender (Ves-Q Storming Mix)
EXTD=TR.
EXTT0=
EXTT1=
EXTT2=
EXTT3=
PLAYORDER=
